<svg xmlns="http://www.w3.org/2000/svg" viewBox="0 0 476.61 278.03"><defs><style>.cls-1,.cls-2,.cls-3{fill:none;stroke-linecap:round;stroke-linejoin:round;}.cls-1,.cls-2{stroke:#575757;}.cls-1,.cls-3{stroke-width:4px;}.cls-2{stroke-width:3px;}.cls-3{stroke:#ccc;}.cls-4{fill:#ccc;}</style></defs><title>versão - appresentação</title><g id="Layer_2" data-name="Layer 2"><g id="formas"><path class="cls-1" d="M107.64,16.44a35.49,35.49,0,0,1,10,4.81q10.73,7.66,10.74,23.14,0,10.74-6.6,17.86t-19.62,8.89v.18q14.78,1.58,22,8.8T131.37,99q0,15.31-10.38,23t-31.5,7.66H18.38V13.42H81m-5.4,45.06q10.91,0,10.91-8.45T75.58,41.58h-18v16.9Zm3,44.35q10.91,0,10.91-8.62,0-8.27-10.91-8.27H57.63v16.9Z"/><path class="cls-1" d="M355,176.68a36.81,36.81,0,0,1,4.66,17.51q0,16.19-12.14,28.69c-8.1,8.33-18.47,15-32.31,21.54v.35l45.16-.24v29.74H267.49V249.63q25.34-13.37,38.63-27.28t13.29-24.64a12.12,12.12,0,0,0-2.29-7.57q-2.29-3-7.22-3a9.39,9.39,0,0,0-8.8,5q-2.82,5-2.46,15.58l-35-8.45q-.35-14.26,6-23.85a38.4,38.4,0,0,1,17.6-14.34,65.1,65.1,0,0,1,25.52-4.75,69,69,0,0,1,17.17,2"/><path class="cls-1" d="M463.53,227.2a40.68,40.68,0,0,1,.37,5.54q0,15-6.78,24.64a39.36,39.36,0,0,1-17.86,14.17A63.66,63.66,0,0,1,415.15,276q-16.55,0-28.25-4.49t-20.5-16.46l35.2-20.42q.88,6.34,3.87,9.24t10.21,2.9q5.81,0,9.15-2.82t3.34-8.45a9.83,9.83,0,0,0-3.17-7.74q-3.17-2.81-9.86-2.82-9,0-13.55,4l-29.92-5.63,7.74-65.3h77.26v30.1H408.11s-2.19,15.76-2.77,18l.18.14a17.82,17.82,0,0,1,8.93-5.54,44.58,44.58,0,0,1,13.2-1.85q11.44,0,19.62,4.4a33.49,33.49,0,0,1,4.51,2.9"/><path class="cls-2" d="M236.87,67.85a81.07,81.07,0,0,1,1.71,17.38q0,21.65-8.71,33.44T205,130.46a28,28,0,0,1-18-6c-4.58-3.66-7.73-16.36-7.73-16.36h-.89V128.7H139.48V12.32H180l-.76,43.16H180a29.54,29.54,0,0,1,9.68-12.14q6.16-4.4,15.14-4.4a35,35,0,0,1,9.37,1.2M201.33,96q1.9-3.14,1.9-11.32t-1.9-11.24a6.26,6.26,0,0,0-5.69-3.07,5.73,5.73,0,0,0-5.4,3.36q-1.75,3.36-1.75,10.37V85.3q0,7.3,1.83,10.59a5.78,5.78,0,0,0,5.33,3.29A6.22,6.22,0,0,0,201.33,96Z"/><line class="cls-3" x1="344.27" y1="150.18" x2="344.27" y2="160.9"/><line class="cls-3" x1="344.27" y1="171.75" x2="344.27" y2="182.47"/><line class="cls-3" x1="360.41" y1="166.32" x2="349.69" y2="166.32"/><line class="cls-3" x1="338.84" y1="166.32" x2="328.12" y2="166.32"/><path class="cls-1" d="M40.35,155.27H75.17q27.1,0,41.1,15t14,43q0,28-14,43t-41.1,15h-57V176.56m66.18,59q4-6.69,4-22.18t-4-22.18q-4.05-6.69-15-6.69H59.16v57.73H69.37Q80.28,242.21,84.33,235.52Z"/><path class="cls-1" d="M172.74,220.21q.87,11.07,4.86,16.5,5.1,7,16,7,7.74,0,12.23-3.08a10.28,10.28,0,0,0,4.49-9.06v-.18H190.8V206.17h53.86v65.47H217l-.07-13.2h-.82q-9,15-31.5,15a55.86,55.86,0,0,1-27.54-6.78,48.29,48.29,0,0,1-19.36-20.15q-7.13-13.37-7.13-32.56,0-28.51,15.93-44.35t44.26-15.84q21.65,0,34.41,7.39T245,185.58l-38.19,13.73q-2.29-14.78-14.61-14.78-10.21,0-15,7a20.9,20.9,0,0,0-2.32,4.63"/><line class="cls-3" x1="18.15" y1="139.12" x2="18.15" y2="149.84"/><line class="cls-3" x1="18.15" y1="160.69" x2="18.15" y2="171.42"/><line class="cls-3" x1="34.3" y1="155.27" x2="23.58" y2="155.27"/><line class="cls-3" x1="12.72" y1="155.27" x2="2" y2="155.27"/><line class="cls-3" x1="161.48" y1="197.85" x2="169.06" y2="205.43"/><line class="cls-3" x1="176.73" y1="213.1" x2="184.31" y2="220.69"/><line class="cls-3" x1="184.31" y1="197.85" x2="176.73" y2="205.43"/><line class="cls-3" x1="169.06" y1="213.1" x2="161.48" y2="220.69"/><line class="cls-3" x1="458.46" y1="198.5" x2="458.46" y2="209.22"/><line class="cls-3" x1="458.46" y1="220.08" x2="458.46" y2="230.8"/><line class="cls-3" x1="474.61" y1="214.65" x2="463.89" y2="214.65"/><line class="cls-3" x1="453.03" y1="214.65" x2="442.31" y2="214.65"/><line class="cls-3" x1="82.82" y1="2" x2="90.4" y2="9.58"/><line class="cls-3" x1="98.07" y1="17.26" x2="105.65" y2="24.84"/><line class="cls-3" x1="105.65" y1="2" x2="98.07" y2="9.58"/><line class="cls-3" x1="90.4" y1="17.26" x2="82.82" y2="24.84"/><line class="cls-3" x1="241.19" y1="41.59" x2="233.61" y2="49.17"/><line class="cls-3" x1="225.94" y1="56.85" x2="218.36" y2="64.43"/><line class="cls-3" x1="241.19" y1="64.43" x2="233.61" y2="56.85"/><line class="cls-3" x1="225.94" y1="49.17" x2="218.36" y2="41.59"/><path class="cls-4" d="M274.78,81.92a5.25,5.25,0,0,1,1.77,2.42,10.65,10.65,0,0,1,.64,3.94,8.76,8.76,0,0,1-.79,3.89,5.67,5.67,0,0,1-2.13,2.43,5.57,5.57,0,0,1-3,.82,4.71,4.71,0,0,1-1.88-.39,4.52,4.52,0,0,1-1.6-1.15L266,95.46l-.44-.19a5.62,5.62,0,0,0,.18-1.52V77.58a2.8,2.8,0,0,0-.44-1.77,1.91,1.91,0,0,0-1.56-.55v-.55q.82.08,1.63.08a8.3,8.3,0,0,0,2.74-.37v9.52a4.68,4.68,0,0,1,1.66-2.08,4.26,4.26,0,0,1,2.45-.74A4.35,4.35,0,0,1,274.78,81.92Zm-1,11.29a10.69,10.69,0,0,0,.87-4.93,11.17,11.17,0,0,0-.79-4.8,2.57,2.57,0,0,0-2.42-1.58,2.74,2.74,0,0,0-1.38.38,3.74,3.74,0,0,0-1.18,1.12,5.21,5.21,0,0,0-.78,1.78V93.5a4.36,4.36,0,0,0,1.41,1,4.09,4.09,0,0,0,1.62.33A2.84,2.84,0,0,0,273.75,93.21Z"/><path class="cls-4" d="M283.74,93.74a1.13,1.13,0,0,0,.63.58,3.34,3.34,0,0,0,1.18.17V95h-.4q-1.62-.09-2.79-.09t-2.79.09h-.4v-.55a3.33,3.33,0,0,0,1.18-.17,1.13,1.13,0,0,0,.63-.58,2.68,2.68,0,0,0,.2-1.14V84.35a2.84,2.84,0,0,0-.44-1.77,1.9,1.9,0,0,0-1.56-.55v-.55q.82.08,1.63.08a8.72,8.72,0,0,0,2.74-.36V92.6A2.68,2.68,0,0,0,283.74,93.74ZM283,75.12a1.78,1.78,0,0,1,.62.62,1.6,1.6,0,0,1,.23.84,1.63,1.63,0,0,1-.23.84A1.71,1.71,0,0,1,283,78a1.63,1.63,0,0,1-.84.23,1.67,1.67,0,0,1-.84-.23,1.64,1.64,0,0,1-.62-.62,1.68,1.68,0,0,1-.22-.84,1.65,1.65,0,0,1,.22-.84,1.71,1.71,0,0,1,.62-.62,1.63,1.63,0,0,1,.84-.23A1.6,1.6,0,0,1,283,75.12Z"/><path class="cls-4" d="M297.33,93.61a5.17,5.17,0,0,1-1.68,1.3,5,5,0,0,1-2.26.5,6,6,0,0,1-3.25-.85,5.49,5.49,0,0,1-2.09-2.4,8.37,8.37,0,0,1-.72-3.57,9.91,9.91,0,0,1,.73-4A5.83,5.83,0,0,1,290.14,82a5.49,5.49,0,0,1,3.14-.91,4.63,4.63,0,0,1,3.64,1.43,6.37,6.37,0,0,1,1.28,4.35H290a13.47,13.47,0,0,0-.09,1.68,7.45,7.45,0,0,0,.57,3,4.87,4.87,0,0,0,1.5,2,3.2,3.2,0,0,0,2,.69,4,4,0,0,0,3.87-2.64l.53.21A5.31,5.31,0,0,1,297.33,93.61Zm-5.64-11.47a3.9,3.9,0,0,0-1.14,1.59,8.72,8.72,0,0,0-.6,2.67h5.73a8.58,8.58,0,0,0-.22-2.4,4,4,0,0,0-.85-1.74,1.85,1.85,0,0,0-1.43-.64A2.4,2.4,0,0,0,291.69,82.14Z"/><path class="cls-4" d="M311.85,82.1a3.18,3.18,0,0,1,.7,1.33,8.56,8.56,0,0,1,.21,2.13v7a2.65,2.65,0,0,0,.2,1.14,1.13,1.13,0,0,0,.63.58,3.35,3.35,0,0,0,1.18.17V95h-.39q-1.65-.09-2.78-.09T309,95h-.36v-.55a2.53,2.53,0,0,0,1-.17,1.05,1.05,0,0,0,.54-.58,3,3,0,0,0,.17-1.14V85a7.19,7.19,0,0,0-.15-1.59,1.86,1.86,0,0,0-.62-1,2.06,2.06,0,0,0-1.37-.4,3.13,3.13,0,0,0-1.92.63,4.08,4.08,0,0,0-1.3,1.73,6.22,6.22,0,0,0-.46,2.44V92.6a3,3,0,0,0,.17,1.14,1,1,0,0,0,.55.58,2.56,2.56,0,0,0,1,.17V95H306q-1.46-.09-2.6-.09t-2.78.09h-.38v-.55a3.34,3.34,0,0,0,1.18-.17,1.14,1.14,0,0,0,.63-.58,2.68,2.68,0,0,0,.2-1.14V84.35a2.83,2.83,0,0,0-.45-1.77A1.9,1.9,0,0,0,300.2,82v-.55q.82.08,1.63.08a8.72,8.72,0,0,0,2.74-.36v3.1a4.56,4.56,0,0,1,4.49-3.18A3.69,3.69,0,0,1,311.85,82.1Z"/><path class="cls-4" d="M323.63,81.38a3.15,3.15,0,0,1,1.29.73,3.25,3.25,0,0,1,.83,1.43,8.85,8.85,0,0,1,.23,2.26v7.32a1.84,1.84,0,0,0,.19,1,.68.68,0,0,0,.62.3,1.25,1.25,0,0,0,.59-.14,3.42,3.42,0,0,0,.59-.41l.3.45q-.46.35-.77.54a2.83,2.83,0,0,1-.71.31,3.33,3.33,0,0,1-.93.12,2.12,2.12,0,0,1-1.77-.64,2.7,2.7,0,0,1-.49-1.7,4.59,4.59,0,0,1-1.85,1.81,4.92,4.92,0,0,1-2.2.53,4.32,4.32,0,0,1-1.67-.31,2.7,2.7,0,0,1-1.21-1,2.84,2.84,0,0,1-.46-1.65,2.93,2.93,0,0,1,.49-1.71,4.35,4.35,0,0,1,1.38-1.24,19.46,19.46,0,0,1,2.38-1.16l.51-.22q1-.37,1.47-.63a2.92,2.92,0,0,0,.84-.6,1.11,1.11,0,0,0,.32-.79V84.29A2.72,2.72,0,0,0,323,82.2a2.65,2.65,0,0,0-1.81-.56,3.15,3.15,0,0,0-2.61.94,1.62,1.62,0,0,1,1.23,1.61,1.35,1.35,0,0,1-.42,1,1.61,1.61,0,0,1-1.12.38,1.3,1.3,0,0,1-1-.45A1.77,1.77,0,0,1,316.8,84,2.34,2.34,0,0,1,318,82.1a6,6,0,0,1,1.59-.71,7.31,7.31,0,0,1,2.1-.28A6.25,6.25,0,0,1,323.63,81.38Zm-.68,6.18q-.45.26-1.88,1a8.33,8.33,0,0,0-1.29.74,3.23,3.23,0,0,0-.9,1,3.11,3.11,0,0,0-.37,1.58,2.36,2.36,0,0,0,.58,1.73,2.05,2.05,0,0,0,1.53.59,3.5,3.5,0,0,0,3-2V87A1.84,1.84,0,0,1,322.95,87.56Z"/><path class="cls-4" d="M333.43,93.74a1.13,1.13,0,0,0,.63.58,3.34,3.34,0,0,0,1.18.17V95h-.4q-1.62-.09-2.79-.09t-2.79.09h-.4v-.55a3.34,3.34,0,0,0,1.18-.17,1.13,1.13,0,0,0,.63-.58,2.68,2.68,0,0,0,.2-1.14v-15a2.81,2.81,0,0,0-.44-1.77,1.92,1.92,0,0,0-1.56-.55v-.55q.82.08,1.63.08a8.29,8.29,0,0,0,2.74-.37V92.6A2.68,2.68,0,0,0,333.43,93.74Z"/><path class="cls-4" d="M353.57,81.92a5.25,5.25,0,0,1,1.77,2.42,10.65,10.65,0,0,1,.64,3.94,8.76,8.76,0,0,1-.79,3.89,5.67,5.67,0,0,1-2.13,2.43,5.57,5.57,0,0,1-3,.82,4.71,4.71,0,0,1-1.88-.39,4.52,4.52,0,0,1-1.6-1.15l-1.88,1.59-.44-.19a5.62,5.62,0,0,0,.18-1.52V77.58a2.8,2.8,0,0,0-.44-1.77,1.91,1.91,0,0,0-1.56-.55v-.55q.82.08,1.63.08a8.3,8.3,0,0,0,2.74-.37v9.52a4.68,4.68,0,0,1,1.66-2.08,4.26,4.26,0,0,1,2.45-.74A4.35,4.35,0,0,1,353.57,81.92Zm-1,11.29a10.69,10.69,0,0,0,.87-4.93,11.17,11.17,0,0,0-.79-4.8,2.57,2.57,0,0,0-2.42-1.58,2.74,2.74,0,0,0-1.38.38,3.74,3.74,0,0,0-1.18,1.12,5.21,5.21,0,0,0-.78,1.78V93.5a4.36,4.36,0,0,0,1.41,1,4.09,4.09,0,0,0,1.62.33A2.84,2.84,0,0,0,352.55,93.21Z"/><path class="cls-4" d="M367.39,81.39a2.17,2.17,0,0,1,.86.75,1.88,1.88,0,0,1,.31,1,1.75,1.75,0,0,1-.41,1.18,1.36,1.36,0,0,1-1.09.48,1.43,1.43,0,0,1-1-.37,1.26,1.26,0,0,1-.41-1,1.66,1.66,0,0,1,.9-1.43.63.63,0,0,0-.55-.26,2.65,2.65,0,0,0-1.88.8,5.56,5.56,0,0,0-1.31,2,5.85,5.85,0,0,0-.48,2.19v5.58A1.89,1.89,0,0,0,363,94a3.77,3.77,0,0,0,2.1.47V95l-.63,0q-2.62-.08-3.42-.08-.63,0-2.67.08L358,95v-.55a3.33,3.33,0,0,0,1.18-.17,1.13,1.13,0,0,0,.63-.58,2.68,2.68,0,0,0,.2-1.14V84.35a2.84,2.84,0,0,0-.44-1.77A1.9,1.9,0,0,0,358,82v-.55q.82.08,1.63.08a8.72,8.72,0,0,0,2.74-.36v3.29a6.41,6.41,0,0,1,.86-1.59,5,5,0,0,1,1.33-1.27,2.94,2.94,0,0,1,1.63-.5A2.71,2.71,0,0,1,367.39,81.39Z"/><path class="cls-4" d="M377.38,81.38a3.13,3.13,0,0,1,1.29.73,3.25,3.25,0,0,1,.83,1.43,8.87,8.87,0,0,1,.22,2.26v7.32a1.84,1.84,0,0,0,.19,1,.68.68,0,0,0,.62.3,1.25,1.25,0,0,0,.59-.14,3.42,3.42,0,0,0,.59-.41l.29.45q-.46.35-.77.54a2.79,2.79,0,0,1-.71.31,3.33,3.33,0,0,1-.93.12,2.12,2.12,0,0,1-1.77-.64,2.7,2.7,0,0,1-.5-1.7,4.56,4.56,0,0,1-1.85,1.81,4.91,4.91,0,0,1-2.2.53,4.32,4.32,0,0,1-1.67-.31,2.69,2.69,0,0,1-1.21-1,2.84,2.84,0,0,1-.46-1.65,2.93,2.93,0,0,1,.49-1.71,4.4,4.4,0,0,1,1.38-1.24,19.46,19.46,0,0,1,2.38-1.16l.52-.22c.63-.25,1.13-.46,1.47-.63a2.93,2.93,0,0,0,.84-.6,1.12,1.12,0,0,0,.32-.79V84.29a2.71,2.71,0,0,0-.64-2.09,2.65,2.65,0,0,0-1.81-.56,3.16,3.16,0,0,0-2.61.94,1.61,1.61,0,0,1,1.23,1.61,1.34,1.34,0,0,1-.42,1,1.61,1.61,0,0,1-1.12.38,1.3,1.3,0,0,1-1-.45,1.78,1.78,0,0,1-.38-1.18,2.35,2.35,0,0,1,1.23-1.88,6,6,0,0,1,1.59-.71,7.34,7.34,0,0,1,2.1-.28A6.25,6.25,0,0,1,377.38,81.38Zm-.68,6.18q-.45.26-1.88,1a8.24,8.24,0,0,0-1.29.74,3.23,3.23,0,0,0-.9,1,3.09,3.09,0,0,0-.37,1.58,2.36,2.36,0,0,0,.58,1.73,2.06,2.06,0,0,0,1.53.59,3.5,3.5,0,0,0,3-2V87A1.83,1.83,0,0,1,376.7,87.56Z"/><path class="cls-4" d="M389.15,81.41a4.71,4.71,0,0,1,1.2.67.84.84,0,0,0,.46.22q.46,0,.59-1.16H392q-.1,1.29-.1,4.47h-.6a6.53,6.53,0,0,0-1.12-2.87,2.88,2.88,0,0,0-2.47-1.13,2.27,2.27,0,0,0-1.56.53,1.88,1.88,0,0,0-.6,1.49,2,2,0,0,0,.33,1.14,3.6,3.6,0,0,0,.85.89q.51.39,1.45,1l.74.48a21.64,21.64,0,0,1,1.95,1.4,5.17,5.17,0,0,1,1.2,1.4,3.55,3.55,0,0,1,.46,1.81,3.29,3.29,0,0,1-.61,2A3.81,3.81,0,0,1,390.29,95a5.77,5.77,0,0,1-2.25.43A5.48,5.48,0,0,1,386,95a6.19,6.19,0,0,1-1.08-.71.33.33,0,0,0-.24-.1q-.39,0-.54,1h-.61q.1-1.5.1-5.26h.6a13.34,13.34,0,0,0,.55,2.69,3.47,3.47,0,0,0,1.11,1.65,3.14,3.14,0,0,0,2,.59,2.59,2.59,0,0,0,1.11-.25,2.08,2.08,0,0,0,.88-.81,2.72,2.72,0,0,0,.35-1.45,2.35,2.35,0,0,0-.37-1.29,4.11,4.11,0,0,0-1-1q-.59-.46-1.66-1.13-1.3-.82-2-1.35a4.86,4.86,0,0,1-1.16-1.29,3.3,3.3,0,0,1-.47-1.79,3.24,3.24,0,0,1,.53-1.88,3.17,3.17,0,0,1,1.41-1.14,5,5,0,0,1,2-.37A4.45,4.45,0,0,1,389.15,81.41Z"/><path class="cls-4" d="M399.1,93.74a1.13,1.13,0,0,0,.63.58,3.34,3.34,0,0,0,1.18.17V95h-.4q-1.62-.09-2.79-.09t-2.79.09h-.4v-.55a3.33,3.33,0,0,0,1.18-.17,1.13,1.13,0,0,0,.63-.58,2.68,2.68,0,0,0,.2-1.14V84.35a2.84,2.84,0,0,0-.44-1.77,1.9,1.9,0,0,0-1.56-.55v-.55q.82.08,1.63.08a8.72,8.72,0,0,0,2.74-.36V92.6A2.68,2.68,0,0,0,399.1,93.74Zm-.72-18.62a1.78,1.78,0,0,1,.62.62,1.6,1.6,0,0,1,.23.84,1.63,1.63,0,0,1-.23.84,1.71,1.71,0,0,1-.62.62,1.63,1.63,0,0,1-.84.23,1.67,1.67,0,0,1-.84-.23,1.64,1.64,0,0,1-.62-.62,1.68,1.68,0,0,1-.22-.84,1.65,1.65,0,0,1,.22-.84,1.71,1.71,0,0,1,.62-.62,1.63,1.63,0,0,1,.84-.23A1.6,1.6,0,0,1,398.38,75.12Z"/><path class="cls-4" d="M406.64,93.74a1.13,1.13,0,0,0,.63.58,3.34,3.34,0,0,0,1.18.17V95H408q-1.62-.09-2.79-.09t-2.79.09h-.4v-.55a3.34,3.34,0,0,0,1.18-.17,1.13,1.13,0,0,0,.63-.58,2.68,2.68,0,0,0,.2-1.14v-15a2.81,2.81,0,0,0-.44-1.77,1.92,1.92,0,0,0-1.56-.55v-.55q.82.08,1.63.08a8.29,8.29,0,0,0,2.74-.37V92.6A2.68,2.68,0,0,0,406.64,93.74Z"/><path class="cls-4" d="M420,93.61a5.17,5.17,0,0,1-1.68,1.3,5,5,0,0,1-2.26.5,6,6,0,0,1-3.25-.85,5.49,5.49,0,0,1-2.09-2.4,8.37,8.37,0,0,1-.72-3.57,9.91,9.91,0,0,1,.73-4A5.83,5.83,0,0,1,412.78,82a5.49,5.49,0,0,1,3.14-.91,4.63,4.63,0,0,1,3.64,1.43,6.37,6.37,0,0,1,1.28,4.35h-8.23a13.47,13.47,0,0,0-.09,1.68,7.45,7.45,0,0,0,.57,3,4.87,4.87,0,0,0,1.5,2,3.2,3.2,0,0,0,2,.69,4,4,0,0,0,3.87-2.64l.53.21A5.31,5.31,0,0,1,420,93.61Zm-5.64-11.47a3.9,3.9,0,0,0-1.14,1.59,8.72,8.72,0,0,0-.6,2.67h5.73a8.58,8.58,0,0,0-.22-2.4,4,4,0,0,0-.85-1.74,1.85,1.85,0,0,0-1.43-.64A2.4,2.4,0,0,0,414.33,82.14Z"/><path class="cls-4" d="M427.41,93.74a1.12,1.12,0,0,0,.63.58,3.33,3.33,0,0,0,1.18.17V95h-.4q-1.62-.09-2.79-.09t-2.79.09h-.4v-.55a3.34,3.34,0,0,0,1.18-.17,1.14,1.14,0,0,0,.63-.58,2.68,2.68,0,0,0,.2-1.14V84.35a2.83,2.83,0,0,0-.45-1.77,1.9,1.9,0,0,0-1.56-.55v-.55q.82.08,1.63.08a8.72,8.72,0,0,0,2.74-.36V92.6A2.68,2.68,0,0,0,427.41,93.74Zm-.73-18.62a1.77,1.77,0,0,1,.62.62,1.6,1.6,0,0,1,.23.84,1.63,1.63,0,0,1-.23.84,1.7,1.7,0,0,1-.62.62,1.63,1.63,0,0,1-.84.23A1.66,1.66,0,0,1,425,78a1.64,1.64,0,0,1-.62-.62,1.66,1.66,0,0,1-.22-.84,1.63,1.63,0,0,1,.22-.84,1.71,1.71,0,0,1,.62-.62,1.63,1.63,0,0,1,.84-.23A1.6,1.6,0,0,1,426.69,75.12Z"/><path class="cls-4" d="M440,81.39a2.15,2.15,0,0,1,.86.75,1.87,1.87,0,0,1,.31,1,1.75,1.75,0,0,1-.41,1.18,1.37,1.37,0,0,1-1.09.48,1.44,1.44,0,0,1-1-.37,1.27,1.27,0,0,1-.41-1,1.66,1.66,0,0,1,.9-1.43.63.63,0,0,0-.55-.26,2.65,2.65,0,0,0-1.88.8,5.58,5.58,0,0,0-1.31,2,5.81,5.81,0,0,0-.48,2.19v5.58a1.89,1.89,0,0,0,.69,1.69,3.78,3.78,0,0,0,2.1.47V95l-.63,0q-2.62-.08-3.42-.08-.63,0-2.68.08l-.44,0v-.55a3.34,3.34,0,0,0,1.18-.17,1.14,1.14,0,0,0,.63-.58,2.68,2.68,0,0,0,.2-1.14V84.35a2.83,2.83,0,0,0-.45-1.77,1.9,1.9,0,0,0-1.56-.55v-.55q.82.08,1.63.08a8.72,8.72,0,0,0,2.74-.36v3.29a6.41,6.41,0,0,1,.86-1.59,5,5,0,0,1,1.33-1.27,2.94,2.94,0,0,1,1.63-.5A2.71,2.71,0,0,1,440,81.39Z"/><path class="cls-4" d="M450,81.38a3.15,3.15,0,0,1,1.29.73,3.25,3.25,0,0,1,.83,1.43,8.85,8.85,0,0,1,.23,2.26v7.32a1.84,1.84,0,0,0,.19,1,.68.68,0,0,0,.62.3,1.25,1.25,0,0,0,.59-.14,3.42,3.42,0,0,0,.59-.41l.3.45q-.46.35-.77.54a2.83,2.83,0,0,1-.71.31,3.33,3.33,0,0,1-.93.12,2.12,2.12,0,0,1-1.77-.64,2.7,2.7,0,0,1-.49-1.7,4.59,4.59,0,0,1-1.85,1.81,4.92,4.92,0,0,1-2.2.53,4.32,4.32,0,0,1-1.67-.31,2.7,2.7,0,0,1-1.21-1,2.84,2.84,0,0,1-.46-1.65,2.93,2.93,0,0,1,.49-1.71,4.35,4.35,0,0,1,1.38-1.24,19.46,19.46,0,0,1,2.38-1.16l.51-.22q1-.37,1.47-.63a2.92,2.92,0,0,0,.84-.6,1.11,1.11,0,0,0,.32-.79V84.29a2.72,2.72,0,0,0-.64-2.09,2.65,2.65,0,0,0-1.81-.56,3.15,3.15,0,0,0-2.61.94,1.62,1.62,0,0,1,1.23,1.61,1.35,1.35,0,0,1-.42,1,1.61,1.61,0,0,1-1.12.38,1.3,1.3,0,0,1-1-.45,1.77,1.77,0,0,1-.38-1.18,2.34,2.34,0,0,1,1.23-1.88A6,6,0,0,1,446,81.4a7.31,7.31,0,0,1,2.1-.28A6.25,6.25,0,0,1,450,81.38Zm-.68,6.18q-.45.26-1.88,1a8.33,8.33,0,0,0-1.29.74,3.23,3.23,0,0,0-.9,1,3.11,3.11,0,0,0-.37,1.58,2.36,2.36,0,0,0,.58,1.73,2.05,2.05,0,0,0,1.53.59,3.5,3.5,0,0,0,3-2V87A1.84,1.84,0,0,1,449.29,87.56Z"/><path class="cls-4" d="M276.78,125.54a1.91,1.91,0,0,0,1.56.55v.55q-.83-.08-1.63-.08a8.29,8.29,0,0,0-2.74.37v-2.34a3.82,3.82,0,0,1-1.44,1.8,4.12,4.12,0,0,1-2.31.62,5.11,5.11,0,0,1-2.88-.8,5,5,0,0,1-1.86-2.39,10.31,10.31,0,0,1-.64-3.95,8.58,8.58,0,0,1,.8-3.92,5.57,5.57,0,0,1,5.16-3.24,4.39,4.39,0,0,1,1.84.38,3,3,0,0,1,1.33,1.18v-5.12a2.8,2.8,0,0,0-.45-1.77,1.91,1.91,0,0,0-1.56-.55v-.55c.56.05,1.1.08,1.63.08a8.3,8.3,0,0,0,2.74-.37v17.78A2.81,2.81,0,0,0,276.78,125.54Zm-4.51.33a3.05,3.05,0,0,0,1.05-1,5,5,0,0,0,.65-1.65v-7.83a2.86,2.86,0,0,0-2.95-2,2.76,2.76,0,0,0-1.88.73,4.81,4.81,0,0,0-1.28,2.2,12,12,0,0,0-.45,3.63,9.73,9.73,0,0,0,.89,4.75,2.91,2.91,0,0,0,2.68,1.59A2.55,2.55,0,0,0,272.27,125.87Z"/><path class="cls-4" d="M290.09,125.21a5.18,5.18,0,0,1-1.69,1.3,5,5,0,0,1-2.26.5,6,6,0,0,1-3.25-.85,5.47,5.47,0,0,1-2.09-2.4,8.37,8.37,0,0,1-.72-3.57,9.91,9.91,0,0,1,.73-4,5.84,5.84,0,0,1,2.08-2.59,5.49,5.49,0,0,1,3.14-.91,4.63,4.63,0,0,1,3.64,1.43A6.37,6.37,0,0,1,291,118.5h-8.23a13.47,13.47,0,0,0-.09,1.68,7.48,7.48,0,0,0,.57,3,4.87,4.87,0,0,0,1.5,2,3.2,3.2,0,0,0,2,.69,4,4,0,0,0,3.87-2.64l.53.21A5.27,5.27,0,0,1,290.09,125.21Zm-5.64-11.47a3.88,3.88,0,0,0-1.14,1.59,8.77,8.77,0,0,0-.61,2.67h5.74a8.66,8.66,0,0,0-.22-2.4,4,4,0,0,0-.85-1.74,1.84,1.84,0,0,0-1.43-.64A2.4,2.4,0,0,0,284.45,113.74Z"/><path class="cls-4" d="M312,125.54a1.91,1.91,0,0,0,1.56.55v.55q-.83-.08-1.63-.08a8.29,8.29,0,0,0-2.74.37v-2.34a3.82,3.82,0,0,1-1.44,1.8,4.12,4.12,0,0,1-2.31.62,5.11,5.11,0,0,1-2.88-.8,5,5,0,0,1-1.86-2.39,10.31,10.31,0,0,1-.64-3.95,8.58,8.58,0,0,1,.8-3.92,5.57,5.57,0,0,1,5.16-3.24,4.39,4.39,0,0,1,1.84.38,3,3,0,0,1,1.33,1.18v-5.12a2.8,2.8,0,0,0-.45-1.77,1.91,1.91,0,0,0-1.56-.55v-.55c.56.05,1.1.08,1.63.08a8.3,8.3,0,0,0,2.74-.37v17.78A2.81,2.81,0,0,0,312,125.54Zm-4.51.33a3.05,3.05,0,0,0,1.05-1,5,5,0,0,0,.65-1.65v-7.83a2.86,2.86,0,0,0-2.95-2,2.76,2.76,0,0,0-1.88.73,4.81,4.81,0,0,0-1.28,2.2,12,12,0,0,0-.45,3.63,9.73,9.73,0,0,0,.89,4.75,2.91,2.91,0,0,0,2.68,1.59A2.55,2.55,0,0,0,307.45,125.87Z"/><path class="cls-4" d="M325.27,125.21a5.18,5.18,0,0,1-1.69,1.3,5,5,0,0,1-2.26.5,6,6,0,0,1-3.25-.85,5.47,5.47,0,0,1-2.09-2.4,8.37,8.37,0,0,1-.72-3.57,9.91,9.91,0,0,1,.73-4,5.84,5.84,0,0,1,2.08-2.59,5.49,5.49,0,0,1,3.14-.91,4.63,4.63,0,0,1,3.64,1.43,6.37,6.37,0,0,1,1.28,4.35h-8.23a13.47,13.47,0,0,0-.09,1.68,7.48,7.48,0,0,0,.57,3,4.87,4.87,0,0,0,1.5,2,3.2,3.2,0,0,0,2,.69,4,4,0,0,0,3.87-2.64l.53.21A5.27,5.27,0,0,1,325.27,125.21Zm-5.64-11.47a3.88,3.88,0,0,0-1.14,1.59,8.77,8.77,0,0,0-.61,2.67h5.74a8.66,8.66,0,0,0-.22-2.4,4,4,0,0,0-.85-1.74,1.84,1.84,0,0,0-1.43-.64A2.4,2.4,0,0,0,319.63,113.74Z"/><path class="cls-4" d="M334.5,113a4.7,4.7,0,0,1,1.2.67.85.85,0,0,0,.46.22q.46,0,.59-1.16h.6q-.1,1.29-.1,4.47h-.61a6.51,6.51,0,0,0-1.12-2.87,2.88,2.88,0,0,0-2.47-1.13,2.26,2.26,0,0,0-1.56.53,1.88,1.88,0,0,0-.6,1.49,2,2,0,0,0,.33,1.14,3.63,3.63,0,0,0,.85.89q.52.39,1.45,1l.75.48a21.57,21.57,0,0,1,1.95,1.4,5.15,5.15,0,0,1,1.2,1.4,3.56,3.56,0,0,1,.46,1.81,3.28,3.28,0,0,1-.61,2,3.83,3.83,0,0,1-1.64,1.26,5.77,5.77,0,0,1-2.25.43,5.47,5.47,0,0,1-2.08-.37,6.19,6.19,0,0,1-1.08-.71.34.34,0,0,0-.24-.1q-.39,0-.54,1h-.6q.1-1.5.1-5.26h.61a13.34,13.34,0,0,0,.55,2.69,3.46,3.46,0,0,0,1.11,1.65,3.14,3.14,0,0,0,2,.59,2.58,2.58,0,0,0,1.11-.25,2.07,2.07,0,0,0,.88-.81,2.7,2.7,0,0,0,.35-1.45,2.33,2.33,0,0,0-.37-1.29,4.08,4.08,0,0,0-1-1q-.59-.46-1.66-1.13-1.3-.82-2-1.35a4.83,4.83,0,0,1-1.16-1.29,3.28,3.28,0,0,1-.48-1.79,3.24,3.24,0,0,1,.53-1.88,3.17,3.17,0,0,1,1.41-1.14,5,5,0,0,1,2-.37A4.46,4.46,0,0,1,334.5,113Z"/><path class="cls-4" d="M344.45,125.34a1.12,1.12,0,0,0,.63.58,3.33,3.33,0,0,0,1.18.17v.55h-.4q-1.62-.09-2.79-.09t-2.79.09h-.4v-.55a3.34,3.34,0,0,0,1.18-.17,1.14,1.14,0,0,0,.63-.58,2.68,2.68,0,0,0,.2-1.14V116a2.83,2.83,0,0,0-.45-1.77,1.9,1.9,0,0,0-1.56-.55v-.55q.82.08,1.63.08a8.72,8.72,0,0,0,2.74-.36V124.2A2.68,2.68,0,0,0,344.45,125.34Zm-.73-18.62a1.77,1.77,0,0,1,.62.62,1.6,1.6,0,0,1,.23.84,1.63,1.63,0,0,1-.23.84,1.7,1.7,0,0,1-.62.62,1.63,1.63,0,0,1-.84.23,1.66,1.66,0,0,1-.84-.23,1.64,1.64,0,0,1-.62-.62,1.66,1.66,0,0,1-.22-.84,1.63,1.63,0,0,1,.22-.84,1.71,1.71,0,0,1,.62-.62,1.63,1.63,0,0,1,.84-.23A1.6,1.6,0,0,1,343.73,106.72Z"/><path class="cls-4" d="M359.15,124.32a2.09,2.09,0,0,1,.86,1.86,4.54,4.54,0,0,1-.82,2.51,6.09,6.09,0,0,1-2.48,2.07,9.13,9.13,0,0,1-4.07.82,11.65,11.65,0,0,1-2.59-.28,5.27,5.27,0,0,1-2-.82,1.6,1.6,0,0,1-.75-1.32,2.35,2.35,0,0,1,.95-1.74,9.39,9.39,0,0,1,2.36-1.48h-.09a3.89,3.89,0,0,1-1.82-.42,1.62,1.62,0,0,1-.82-1.58,2.5,2.5,0,0,1,.75-1.71,8,8,0,0,1,2.54-1.62,3.77,3.77,0,0,1-1.8-1.39,4.09,4.09,0,0,1-.64-2.37,3.71,3.71,0,0,1,1.33-3.12,5.59,5.59,0,0,1,3.53-1,7.08,7.08,0,0,1,1.87.23,5.52,5.52,0,0,1,.93-2.34,2.21,2.21,0,0,1,1.8-.87,1.34,1.34,0,0,1,1,.39,1.38,1.38,0,0,1,.37,1,1.23,1.23,0,0,1-1.26,1.26,1.11,1.11,0,0,1-1-.41,3,3,0,0,1-.44-1.25,3.09,3.09,0,0,0-.71,1.29,9.14,9.14,0,0,0-.27,1.09,3.8,3.8,0,0,1,1.87,1.39,4.63,4.63,0,0,1,0,4.73,3.76,3.76,0,0,1-1.72,1.38,6.59,6.59,0,0,1-2.52.45,7,7,0,0,1-1.94-.24,9.53,9.53,0,0,0-1.64,1,1.36,1.36,0,0,0-.57,1,.76.76,0,0,0,.29.66,1.65,1.65,0,0,0,1,.22h6.19A3.91,3.91,0,0,1,359.15,124.32Zm-3.52,6.4a4.4,4.4,0,0,0,1.84-1.26,3,3,0,0,0,.72-2,1.7,1.7,0,0,0-.17-.83,1.08,1.08,0,0,0-.61-.48,3.69,3.69,0,0,0-1.22-.16h-4.9a3.29,3.29,0,0,0-1.31,1.16,2.73,2.73,0,0,0-.48,1.5,1.91,1.91,0,0,0,.57,1.41,3.42,3.42,0,0,0,1.45.84,6.22,6.22,0,0,0,1.82.27A6.5,6.5,0,0,0,355.63,130.72ZM351.85,114a7,7,0,0,0,0,5.7,2.32,2.32,0,0,0,3.58,0,7,7,0,0,0,0-5.71,2.32,2.32,0,0,0-3.58,0Z"/><path class="cls-4" d="M372.89,113.7a3.18,3.18,0,0,1,.7,1.33,8.56,8.56,0,0,1,.21,2.13v7a2.65,2.65,0,0,0,.2,1.14,1.13,1.13,0,0,0,.63.58,3.35,3.35,0,0,0,1.18.17v.55h-.39q-1.65-.09-2.78-.09t-2.58.09h-.36v-.55a2.53,2.53,0,0,0,1-.17,1.05,1.05,0,0,0,.54-.58,3,3,0,0,0,.17-1.14v-7.61a7.19,7.19,0,0,0-.15-1.59,1.86,1.86,0,0,0-.62-1,2.06,2.06,0,0,0-1.37-.4,3.13,3.13,0,0,0-1.92.63,4.08,4.08,0,0,0-1.3,1.73,6.22,6.22,0,0,0-.46,2.44v5.85a3,3,0,0,0,.17,1.14,1,1,0,0,0,.55.58,2.56,2.56,0,0,0,1,.17v.55H367q-1.46-.09-2.6-.09t-2.78.09h-.38v-.55a3.34,3.34,0,0,0,1.18-.17,1.14,1.14,0,0,0,.63-.58,2.68,2.68,0,0,0,.2-1.14V116a2.83,2.83,0,0,0-.45-1.77,1.9,1.9,0,0,0-1.56-.55v-.55q.82.08,1.63.08a8.72,8.72,0,0,0,2.74-.36v3.1a4.56,4.56,0,0,1,4.49-3.18A3.69,3.69,0,0,1,372.89,113.7Z"/><path class="cls-4" d="M395.08,124.32a2.09,2.09,0,0,1,.86,1.86,4.54,4.54,0,0,1-.82,2.51,6.09,6.09,0,0,1-2.48,2.07,9.13,9.13,0,0,1-4.07.82,11.65,11.65,0,0,1-2.59-.28,5.27,5.27,0,0,1-2-.82,1.6,1.6,0,0,1-.75-1.32,2.35,2.35,0,0,1,.95-1.74,9.39,9.39,0,0,1,2.36-1.48h-.09a3.89,3.89,0,0,1-1.82-.42,1.62,1.62,0,0,1-.82-1.58,2.5,2.5,0,0,1,.75-1.71,8,8,0,0,1,2.54-1.62,3.77,3.77,0,0,1-1.8-1.39,4.09,4.09,0,0,1-.64-2.37,3.71,3.71,0,0,1,1.33-3.12,5.59,5.59,0,0,1,3.53-1,7.08,7.08,0,0,1,1.87.23,5.52,5.52,0,0,1,.93-2.34,2.21,2.21,0,0,1,1.8-.87,1.34,1.34,0,0,1,1,.39,1.38,1.38,0,0,1,.37,1,1.23,1.23,0,0,1-1.26,1.26,1.11,1.11,0,0,1-1-.41,3,3,0,0,1-.44-1.25,3.09,3.09,0,0,0-.71,1.29,9.15,9.15,0,0,0-.27,1.09,3.8,3.8,0,0,1,1.87,1.39,4.63,4.63,0,0,1,0,4.73,3.76,3.76,0,0,1-1.72,1.38,6.59,6.59,0,0,1-2.52.45,7,7,0,0,1-1.94-.24,9.53,9.53,0,0,0-1.64,1,1.36,1.36,0,0,0-.57,1,.76.76,0,0,0,.29.66,1.65,1.65,0,0,0,1,.22h6.19A3.91,3.91,0,0,1,395.08,124.32Zm-3.52,6.4a4.4,4.4,0,0,0,1.84-1.26,3,3,0,0,0,.72-2,1.7,1.7,0,0,0-.17-.83,1.08,1.08,0,0,0-.61-.48,3.69,3.69,0,0,0-1.22-.16h-4.9a3.29,3.29,0,0,0-1.31,1.16,2.73,2.73,0,0,0-.48,1.5A1.91,1.91,0,0,0,386,130a3.42,3.42,0,0,0,1.45.84,6.22,6.22,0,0,0,1.82.27A6.5,6.5,0,0,0,391.56,130.72ZM387.77,114a7,7,0,0,0,0,5.7,2.32,2.32,0,0,0,3.58,0,7,7,0,0,0,0-5.71,2.32,2.32,0,0,0-3.58,0Z"/><path class="cls-4" d="M406.6,113a2.15,2.15,0,0,1,.86.75,1.87,1.87,0,0,1,.31,1,1.75,1.75,0,0,1-.41,1.18,1.37,1.37,0,0,1-1.09.48,1.44,1.44,0,0,1-1-.37,1.27,1.27,0,0,1-.41-1,1.66,1.66,0,0,1,.9-1.43.63.63,0,0,0-.55-.26,2.65,2.65,0,0,0-1.88.8,5.58,5.58,0,0,0-1.31,2,5.81,5.81,0,0,0-.48,2.19v5.58a1.89,1.89,0,0,0,.69,1.69,3.78,3.78,0,0,0,2.1.47v.55l-.63,0q-2.62-.08-3.42-.08-.63,0-2.68.08l-.44,0v-.55a3.34,3.34,0,0,0,1.18-.17,1.14,1.14,0,0,0,.63-.58,2.68,2.68,0,0,0,.2-1.14V116a2.83,2.83,0,0,0-.45-1.77,1.9,1.9,0,0,0-1.56-.55v-.55q.82.08,1.63.08a8.72,8.72,0,0,0,2.74-.36v3.29a6.41,6.41,0,0,1,.86-1.59,5,5,0,0,1,1.33-1.27,2.94,2.94,0,0,1,1.63-.5A2.71,2.71,0,0,1,406.6,113Z"/><path class="cls-4" d="M416.58,113a3.15,3.15,0,0,1,1.29.73,3.25,3.25,0,0,1,.83,1.43,8.85,8.85,0,0,1,.23,2.26v7.32a1.84,1.84,0,0,0,.19,1,.68.68,0,0,0,.62.3,1.25,1.25,0,0,0,.59-.14,3.42,3.42,0,0,0,.59-.41l.3.45q-.46.35-.77.54a2.83,2.83,0,0,1-.71.31,3.33,3.33,0,0,1-.93.12,2.12,2.12,0,0,1-1.77-.64,2.7,2.7,0,0,1-.49-1.7,4.59,4.59,0,0,1-1.85,1.81,4.92,4.92,0,0,1-2.2.53,4.32,4.32,0,0,1-1.67-.31,2.7,2.7,0,0,1-1.21-1,2.84,2.84,0,0,1-.46-1.65,2.93,2.93,0,0,1,.49-1.71,4.35,4.35,0,0,1,1.38-1.24,19.46,19.46,0,0,1,2.38-1.16l.51-.22q1-.37,1.47-.63a2.92,2.92,0,0,0,.84-.6,1.11,1.11,0,0,0,.32-.79v-1.63a2.72,2.72,0,0,0-.64-2.09,2.65,2.65,0,0,0-1.81-.56,3.15,3.15,0,0,0-2.61.94,1.62,1.62,0,0,1,1.23,1.61,1.35,1.35,0,0,1-.42,1,1.61,1.61,0,0,1-1.12.38,1.3,1.3,0,0,1-1-.45,1.77,1.77,0,0,1-.38-1.18A2.34,2.34,0,0,1,411,113.7a6,6,0,0,1,1.59-.71,7.31,7.31,0,0,1,2.1-.28A6.25,6.25,0,0,1,416.58,113Zm-.68,6.18q-.45.26-1.88,1a8.33,8.33,0,0,0-1.29.74,3.23,3.23,0,0,0-.9,1,3.11,3.11,0,0,0-.37,1.58,2.36,2.36,0,0,0,.58,1.73,2.05,2.05,0,0,0,1.53.59,3.5,3.5,0,0,0,3-2V118.6A1.84,1.84,0,0,1,415.9,119.16ZM417.78,106a1.52,1.52,0,0,1-.36.9,13.05,13.05,0,0,1-1.5,1.47q-1.67,1.49-2.66,2.53l-.28-.23q.85-1.32,1.81-3.2a14.09,14.09,0,0,1,1.05-1.8,1.26,1.26,0,0,1,1-.59.93.93,0,0,1,.58.19A.91.91,0,0,1,417.78,106Z"/><path class="cls-4" d="M432.87,106.26a5.09,5.09,0,0,1,1.51.58,1.68,1.68,0,0,1,.9,1.45,1.65,1.65,0,0,1-.23.86,1.75,1.75,0,0,1-.62.62,1.59,1.59,0,0,1-.84.23,1.63,1.63,0,0,1-.84-.23,1.75,1.75,0,0,1-.62-.62,1.6,1.6,0,0,1-.23-.84,1.65,1.65,0,0,1,.24-.87,1.67,1.67,0,0,1,.64-.61,3.57,3.57,0,0,0-1.92-.4,3.93,3.93,0,0,0-3.74,2,5.33,5.33,0,0,0-.55,1.73,19.33,19.33,0,0,0-.17,2.9h4.24q1.65,0,2.59-.06a12.46,12.46,0,0,0,1.78-.24V124.2a2.68,2.68,0,0,0,.2,1.14,1.13,1.13,0,0,0,.63.58,3.34,3.34,0,0,0,1.18.17v.55h-.4q-1.62-.09-2.79-.09t-2.79.09h-.4v-.55a3.33,3.33,0,0,0,1.18-.17,1.13,1.13,0,0,0,.63-.58,2.68,2.68,0,0,0,.2-1.14V116a2.84,2.84,0,0,0-.44-1.77,1.9,1.9,0,0,0-1.56-.55h-4.24V124.2a1.71,1.71,0,0,0,.56,1.48,2.91,2.91,0,0,0,1.71.41v.55l-.59,0-2.87-.08q-.69,0-2.74.08l-.45,0v-.55a3.35,3.35,0,0,0,1.18-.17,1.13,1.13,0,0,0,.63-.58,2.68,2.68,0,0,0,.2-1.14V113.63h-2.11v-.53H424a7,7,0,0,1,1.9-5.34,5.91,5.91,0,0,1,2-1.25,8.09,8.09,0,0,1,2.88-.47A8.8,8.8,0,0,1,432.87,106.26Z"/><path class="cls-4" d="M447.94,113.55a2.42,2.42,0,0,1,1.23,2,1.47,1.47,0,0,1-.39,1.09,1.35,1.35,0,0,1-1,.39,1.55,1.55,0,0,1-1-.35,1.2,1.2,0,0,1-.42-1,1.43,1.43,0,0,1,.31-.95,1.53,1.53,0,0,1,.79-.51,1.94,1.94,0,0,0-.94-.79,3.37,3.37,0,0,0-1.43-.31,3,3,0,0,0-1.81.62,4.42,4.42,0,0,0-1.4,2.06,10.73,10.73,0,0,0-.55,3.78,8.38,8.38,0,0,0,1.05,4.76,3.22,3.22,0,0,0,2.74,1.49,3.91,3.91,0,0,0,2.14-.66,4.73,4.73,0,0,0,1.68-2.06l.5.18a6,6,0,0,1-.91,1.77,4.8,4.8,0,0,1-1.61,1.36,4.86,4.86,0,0,1-2.32.53,5.38,5.38,0,0,1-3-.85,5.79,5.79,0,0,1-2.09-2.43,8.42,8.42,0,0,1-.77-3.7,8.89,8.89,0,0,1,.78-3.8,6.14,6.14,0,0,1,2.18-2.59,5.63,5.63,0,0,1,3.18-.93A5.49,5.49,0,0,1,447.94,113.55Z"/><path class="cls-4" d="M460.63,113.47a5.24,5.24,0,0,1,2.12,2.36,10.89,10.89,0,0,1,0,8.08,5.21,5.21,0,0,1-2.12,2.35,6.68,6.68,0,0,1-6.16,0,5.2,5.2,0,0,1-2.12-2.35,10.89,10.89,0,0,1,0-8.08,5.23,5.23,0,0,1,2.12-2.36,6.63,6.63,0,0,1,6.16,0ZM455,114.86a10.54,10.54,0,0,0-.92,5,10.47,10.47,0,0,0,.92,5,2.74,2.74,0,0,0,5,0,10.44,10.44,0,0,0,.92-5,10.52,10.52,0,0,0-.92-5,2.74,2.74,0,0,0-5,0Z"/></g></g></svg>