<?xml version="1.0" encoding="UTF-8"?>
<svg width="18px" height="12px" viewBox="0 0 18 12" version="1.1" xmlns="http://www.w3.org/2000/svg" xmlns:xlink="http://www.w3.org/1999/xlink">
    <!-- Generator: Sketch 42 (36781) - http://www.bohemiancoding.com/sketch -->
    <title>Icon/Social/Behance</title>
    <desc>Created with Sketch.</desc>
    <defs>
        <path d="M20.2035909,18 C20.7306788,18 21.2084223,18.0448585 21.6435502,18.1401829 C22.0764351,18.232143 22.4453966,18.384662 22.7582849,18.5954972 C23.065566,18.8052108 23.3078021,19.0844553 23.4782645,19.4365948 C23.6464841,19.7842485 23.7317153,20.2182549 23.7317153,20.7318852 C23.7317153,21.2870097 23.6049899,21.7524171 23.3526606,22.1225001 C23.0992099,22.492583 22.724641,22.7976211 22.2267112,23.0331285 C22.9063181,23.2282631 23.4087338,23.571431 23.7429299,24.0603891 C24.079369,24.5538331 24.2419812,25.1482088 24.2419812,25.8323015 C24.2419812,26.3930333 24.1410495,26.8752626 23.9279714,27.2789895 C23.7148934,27.693931 23.4233128,28.0303701 23.0532299,28.2883067 C22.6943615,28.5462434 22.2682054,28.7368922 21.7971907,28.8602532 C21.3373906,28.9836141 20.8551613,29.050902 20.3617173,29.050902 L15,29.050902 L15,18.0033644 L20.2035909,18.0033644 L20.2035909,18 Z M27.7061822,27.1208632 C28.034771,27.4416017 28.5102716,27.6030925 29.1259551,27.6030925 C29.5678117,27.6030925 29.9513522,27.4909461 30.2720908,27.2666534 C30.5905865,27.0457251 30.7834782,26.8068534 30.8586163,26.5601314 L32.7987482,26.5601314 C32.4959531,27.5212257 32.0137237,28.2086828 31.3744895,28.6213814 C30.7352553,29.0363229 29.9614454,29.2437937 29.0642746,29.2437937 C28.436255,29.2437937 27.8755232,29.142862 27.3596499,28.9409985 C26.8549913,28.7391351 26.4288352,28.4531619 26.0699668,28.0819574 C25.7223131,27.7096315 25.4531619,27.2677749 25.2625131,26.7496587 C25.0718643,26.2337855 24.9821472,25.6618391 24.9821472,25.0450341 C24.9821472,24.4394438 25.0830789,23.8899266 25.2849423,23.3740534 C25.4868058,22.8469655 25.7671717,22.4095947 26.12604,22.0282971 C26.496123,21.6469995 26.9222791,21.355419 27.4269378,21.1311263 C27.9315964,20.9068336 28.4811135,20.8059018 29.0979185,20.8059018 C29.7820112,20.8059018 30.3651723,20.9292628 30.8810455,21.1984141 C31.3857041,21.4563507 31.8006457,21.815219 32.1258701,22.2525898 C32.4623092,22.6899606 32.6866019,23.1946192 32.8323921,23.7665656 C32.9781824,24.3272974 33.0230409,24.9216731 32.989397,25.5496927 L27.2239528,25.5496927 C27.2239528,26.1777123 27.4370309,26.772088 27.7622554,27.0973124 L27.7061822,27.1208632 Z M20.0241568,27.1578715 C20.2630285,27.1578715 20.4906856,27.1354422 20.7048851,27.0883407 C20.9224491,27.0434822 21.1153408,26.9649797 21.2768316,26.864048 C21.4405652,26.7631163 21.5751409,26.617326 21.6727082,26.4266772 C21.7702755,26.247243 21.8184985,26.0005211 21.8184985,25.7089405 C21.8184985,25.1482088 21.6581292,24.7444819 21.3396335,24.4977599 C21.0200164,24.2622525 20.5949817,24.1388915 20.0723797,24.1388915 L17.4302115,24.1388915 L17.4302115,27.1780578 L20.0241568,27.1780578 L20.0241568,27.1578715 Z M30.2294752,22.9221036 C29.9670527,22.632766 29.5251961,22.4768825 28.9868936,22.4768825 C28.6358755,22.4768825 28.3454164,22.5329557 28.112152,22.6563167 C27.8856163,22.7684631 27.6994534,22.9142533 27.5570275,23.0936875 C27.4157231,23.2731217 27.3192772,23.4525558 27.2632041,23.6544193 C27.2071309,23.8450681 27.173487,24.0245023 27.1622724,24.1815072 L30.7341338,24.1815072 C30.681425,23.6207754 30.4907762,23.2058339 30.2294752,22.9142533 L30.2294752,22.9221036 Z M19.8895811,22.4589391 C20.3202231,22.4589391 20.6768486,22.3580074 20.9583359,22.1494152 C21.2387018,21.9453088 21.3732774,21.6088697 21.3732774,21.1457053 C21.3732774,20.8877687 21.3284189,20.6769335 21.2387018,20.5120784 C21.1444989,20.3472232 21.0200164,20.2182549 20.864133,20.1285378 C20.7071281,20.0343349 20.5276939,19.96929 20.3258305,19.9345246 C20.123967,19.8952734 19.9108889,19.8784515 19.6978109,19.8784515 L17.4223613,19.8784515 L17.4223613,22.4578177 L19.8895811,22.4578177 L19.8895811,22.4589391 Z M26.7136869,18.740166 L31.1883265,18.740166 L31.1883265,19.8302285 L26.7136869,19.8302285 L26.7136869,18.7311942 L26.7136869,18.740166 Z" id="path-1"></path>
    </defs>
    <g id="Layout-v0" stroke="none" stroke-width="1" fill="none" fill-rule="evenodd">
        <g id="Layout-Desktop-1440" transform="translate(-1256.000000, -9890.000000)">
            <g id="ENDING" transform="translate(0.000000, 9380.000000)">
                <g id="Proj-Acadêmico" transform="translate(940.000000, 458.000000)">
                    <g id="Um-projeto-de">
                        <g id="Lucas-Ataides" transform="translate(0.000000, 34.000000)">
                            <g id="Sociais" transform="translate(205.000000, 0.000000)">
                                <g id="Icon/Social/Behance" transform="translate(96.000000, 0.000000)">
                                    <mask id="mask-2" fill="white">
                                        <use xlink:href="#path-1"></use>
                                    </mask>
                                    <use id="Shape" fill="#FFFFFF" fill-rule="evenodd" xlink:href="#path-1"></use>
                                    <g id="Fill/Secondary" mask="url(#mask-2)" fill-rule="evenodd" fill="#575557">
                                        <rect id="Rectangle-5" x="0" y="0" width="48" height="48"></rect>
                                    </g>
                                </g>
                            </g>
                        </g>
                    </g>
                </g>
            </g>
        </g>
    </g>
</svg>