<?xml version="1.0" encoding="UTF-8"?>
<svg width="18px" height="18px" viewBox="0 0 18 18" version="1.1" xmlns="http://www.w3.org/2000/svg" xmlns:xlink="http://www.w3.org/1999/xlink">
    <!-- Generator: Sketch 42 (36781) - http://www.bohemiancoding.com/sketch -->
    <title>Icon/Social/Linkedin</title>
    <desc>Created with Sketch.</desc>
    <defs>
        <path d="M30.336,30.339375 L27.66975,30.339375 L27.66975,26.16225 C27.66975,25.1655 27.6495,23.884125 26.2815,23.884125 C24.892125,23.884125 24.6795,24.968625 24.6795,26.089125 L24.6795,30.339375 L22.01325,30.339375 L22.01325,21.75 L24.57375,21.75 L24.57375,22.92 L24.6075,22.92 C24.96525,22.245 25.836,21.532875 27.135375,21.532875 C29.835375,21.532875 30.336,23.310375 30.336,25.6245 L30.336,30.336 L30.336,30.339375 Z M19.00275,20.574375 C18.1455,20.574375 17.45475,19.88025 17.45475,19.02525 C17.45475,18.1725 18.1455,17.478375 19.00275,17.478375 C19.85775,17.478375 20.55075,18.1725 20.55075,19.02525 C20.55075,19.88025 19.856625,20.574375 19.00275,20.574375 L19.00275,20.574375 Z M20.33925,30.339375 L17.66625,30.339375 L17.66625,21.75 L20.33925,21.75 L20.33925,30.339375 L20.33925,30.339375 Z M31.668,15 L16.3275,15 C15.594,15 15,15.5805 15,16.297125 L15,31.702875 C15,32.4195 15.594,33 16.3275,33 L31.666875,33 C32.400375,33 33,32.4195 33,31.702875 L33,16.297125 C33,15.5805 32.400375,15 31.666875,15 L31.668,15 Z" id="path-1"></path>
    </defs>
    <g id="Layout-v0" stroke="none" stroke-width="1" fill="none" fill-rule="evenodd">
        <g id="Layout-Desktop-1440" transform="translate(-1208.000000, -9887.000000)">
            <g id="ENDING" transform="translate(0.000000, 9380.000000)">
                <g id="Proj-Acadêmico" transform="translate(940.000000, 458.000000)">
                    <g id="Um-projeto-de">
                        <g id="Lucas-Ataides" transform="translate(0.000000, 34.000000)">
                            <g id="Sociais" transform="translate(205.000000, 0.000000)">
                                <g id="Icon/Social/Linkedin" transform="translate(48.000000, 0.000000)">
                                    <mask id="mask-2" fill="white">
                                        <use xlink:href="#path-1"></use>
                                    </mask>
                                    <use id="Shape" fill="#FFFFFF" fill-rule="evenodd" xlink:href="#path-1"></use>
                                    <g id="Fill/Secondary" mask="url(#mask-2)" fill-rule="evenodd" fill="#575557">
                                        <rect id="Rectangle-5" x="0" y="0" width="48" height="48"></rect>
                                    </g>
                                </g>
                            </g>
                        </g>
                    </g>
                </g>
            </g>
        </g>
    </g>
</svg>